<svg width="252" height="155" viewBox="0 0 252 155" fill="none" xmlns="http://www.w3.org/2000/svg">
<path d="M140.9 67.66C159.8 50.92 178.52 34.54 190.58 25.72C199.4 19.24 208.94 15.46 215.96 15.46C225.14 15.46 235.4 16.9 242.96 16.9C246.02 16.9 251.78 8.62 251.78 5.55999C251.78 4.48 250.16 3.21999 246.92 3.21999C228.38 3.21999 208.22 9.15999 186.8 25.36C165.38 41.92 120.2 82.78 96.08 105.64C101.12 97.18 105.44 87.82 109.4 78.28C131 26.44 135.68 9.87999 155.12 9.87999C159.08 9.87999 168.98 0.879991 165.92 0.879991C156.2 0.879991 146.48 2.67999 124.34 2.67999C101.48 2.67999 98.06 2.67999 95.54 4.11999C90.86 5.91999 81.5 16.72 84.92 16.72C93.74 16.72 126.32 7.71999 144.5 10.06C130.64 16 113 34.9 93.38 82.96C80.24 115.54 72.68 134.62 62.06 142.18C57.56 145.24 50.72 146.14 43.52 146.14C28.94 146.14 12.02 139.48 8.24 140.02C3.38 143.08 0.5 149.92 0.68 151.9C2.12 153.34 7.88 154.96 20.3 154.96C32 154.96 46.94 152.44 61.88 143.98C73.22 137.5 84.02 125.26 93.38 110.14C103.46 101.32 117.68 88.54 132.44 75.4C136.22 99.16 144.86 126.16 152.06 137.5C154.04 140.92 158.18 147.04 162.5 150.28C163.58 151 168.62 151.54 170.6 150.46C181.94 144.16 193.1 133.18 200.84 125.8L199.76 125.08C190.4 133.72 181.76 140.92 175.82 142.54C171.32 140.92 167.18 136.96 163.58 131.02C157.1 120.22 147.56 93.22 142.88 66.22L140.9 67.66Z" fill="white"/>
</svg>
